<svg width="24.000000" height="24.000000" viewBox="0 0 24 24" fill="none" xmlns="http://www.w3.org/2000/svg" xmlns:xlink="http://www.w3.org/1999/xlink">
	<desc>
			Created with Pixso.
	</desc>
	<defs/>
	<path id="Vector" d="M12 0C5.37 0 0 5.37 0 12C0 18.62 5.37 24 12 24C18.62 24 24 18.62 24 12C24 5.37 18.62 0 12 0ZM1.91 9.44C1.7 10.26 1.6 11.11 1.6 12C1.6 16.91 5.01 21.03 9.6 22.12L9.6 21.13L8 19.53L8 17.13L6.39 15.53L6.39 13.6C6.39 13.15 6.75 12.79 7.2 12.79L13.6 12.79C14.92 12.79 16 13.87 16 15.2L16 16.01C16.81 16.13 17.46 16.78 17.58 17.6L20.76 17.6C21.79 15.98 22.39 14.06 22.39 12C22.39 7.67 19.75 3.96 16 2.39L16 4C16 5.32 14.92 6.39 13.6 6.39L12 6.39C11.55 6.39 11.2 6.75 11.2 7.2C11.2 8.52 10.12 9.6 8.8 9.6L8 9.6L8 10.73L7.29 11.43C6.35 12.37 4.84 12.37 3.9 11.43L1.91 9.44Z" fill="#FFFFFF" fill-opacity="1.000000" fill-rule="evenodd"/>
</svg>
