<svg width="24" height="25" viewBox="0 0 24 25" fill="none" xmlns="http://www.w3.org/2000/svg">
<g clip-path="url(#clip0_68_1355)">
<path d="M23.7663 12.3485C23.7663 11.5328 23.7001 10.7127 23.559 9.91016H12.2402V14.5311H18.722C18.453 16.0215 17.5888 17.3399 16.3233 18.1777V21.176H20.1903C22.4611 19.086 23.7663 15.9994 23.7663 12.3485Z" fill="#4285F4"/>
<path d="M12.2401 24.0736C15.4766 24.0736 18.2059 23.0109 20.1945 21.1766L16.3276 18.1783C15.2517 18.9103 13.8627 19.3247 12.2445 19.3247C9.11388 19.3247 6.45946 17.2127 5.50705 14.373H1.5166V17.464C3.55371 21.5162 7.7029 24.0736 12.2401 24.0736Z" fill="#34A853"/>
<path d="M5.50277 14.373C5.00011 12.8826 5.00011 11.2688 5.50277 9.77844V6.6875H1.51674C-0.185266 10.0783 -0.185266 14.0731 1.51674 17.4639L5.50277 14.373Z" fill="#FBBC04"/>
<path d="M12.2401 4.82193C13.9509 4.79547 15.6044 5.43923 16.8434 6.62093L20.2695 3.19488C18.1001 1.15777 15.2208 0.0377996 12.2401 0.0730743C7.7029 0.0730743 3.55371 2.63049 1.5166 6.68707L5.50264 9.77802C6.45064 6.934 9.10947 4.82193 12.2401 4.82193Z" fill="#EA4335"/>
</g>
<defs>
<clipPath id="clip0_68_1355">
<rect width="24" height="24" fill="white" transform="translate(0 0.0722656)"/>
</clipPath>
</defs>
</svg>
