<svg width="15" height="16" viewBox="0 0 15 16" fill="none" xmlns="http://www.w3.org/2000/svg">
<path d="M5.5 0.572266C3.56717 0.572266 2 2.13794 2 4.07031C2 6.00268 3.56717 7.56835 5.5 7.56835C7.43283 7.56835 9 6.00268 9 4.07031C9 2.13794 7.43283 0.572266 5.5 0.572266Z" fill="#1F0000"/>
<path d="M3.5 9.56641C1.56711 9.56641 0 11.1328 0 13.0659V15.5631H11V13.0659C11 11.1328 9.43289 9.56641 7.5 9.56641H3.5Z" fill="#1F0000"/>
<path d="M12.5 10.5723H12V15.5723H15V13.0723C15 11.6916 13.8807 10.5723 12.5 10.5723Z" fill="#1F0000"/>
<path d="M11.5 4.57227C10.1193 4.57227 9 5.69155 9 7.07227C9 8.45298 10.1193 9.57227 11.5 9.57227C12.8807 9.57227 14 8.45298 14 7.07227C14 5.69155 12.8807 4.57227 11.5 4.57227Z" fill="#1F0000"/>
</svg>
