<svg width="15" height="16" viewBox="0 0 15 16" fill="none" xmlns="http://www.w3.org/2000/svg">
<mask id="mask0_172_783" style="mask-type:alpha" maskUnits="userSpaceOnUse" x="0" y="0" width="15" height="16">
<rect y="0.572266" width="15" height="15" fill="#D9D9D9"/>
</mask>
<g mask="url(#mask0_172_783)">
<path d="M4.375 13.0879V7.44727H5.375C5.44792 7.44727 5.52083 7.45508 5.59375 7.4707C5.66667 7.48633 5.73958 7.50456 5.8125 7.52539L10.1406 9.13477C10.2865 9.18685 10.4036 9.2806 10.4922 9.41602C10.5807 9.55143 10.625 9.69206 10.625 9.83789C10.625 10.0566 10.5495 10.2337 10.3984 10.3691C10.2474 10.5046 10.0729 10.5723 9.875 10.5723H8.23438C8.18229 10.5723 8.14323 10.5697 8.11719 10.5645C8.09115 10.5592 8.05729 10.5462 8.01562 10.5254L7.01562 10.1348L6.8125 10.7441L8.01562 11.166C8.03646 11.1764 8.06771 11.1842 8.10938 11.1895C8.15104 11.1947 8.1875 11.1973 8.21875 11.1973H12.5C12.8333 11.1973 13.125 11.3171 13.375 11.5566C13.625 11.7962 13.75 12.0931 13.75 12.4473L8.76562 14.3223L4.375 13.0879ZM0.625 14.3223V7.44727H3.125V14.3223H0.625ZM9.0625 5.57227H9.6875V4.94727H9.0625V5.57227ZM7.8125 5.57227H8.4375V4.94727H7.8125V5.57227ZM9.0625 6.82227H9.6875V6.19727H9.0625V6.82227ZM7.8125 6.82227H8.4375V6.19727H7.8125V6.82227ZM11.5781 9.32227C11.4323 8.97852 11.224 8.67643 10.9531 8.41602C10.6823 8.1556 10.349 7.95247 9.95312 7.80664L5.625 6.19727H4.375V4.63477L8.75 1.50977L13.125 4.63477V9.32227H11.5781Z" fill="#1F0000"/>
</g>
</svg>
