<svg width="24.000000" height="24.000000" viewBox="0 0 24 24" fill="none" xmlns="http://www.w3.org/2000/svg" xmlns:xlink="http://www.w3.org/1999/xlink">
	<desc>
			Created with Pixso.
	</desc>
	<defs/>
	<path id="Vector" d="M0 12C0 5.37 5.37 0 12 0C18.62 0 24 5.37 24 12C24 18.62 18.62 24 12 24C5.37 24 0 18.62 0 12ZM12 1.6C6.25 1.6 1.6 6.25 1.6 12C1.6 14.95 2.83 17.62 4.81 19.52C5.06 16.65 7.46 14.39 10.39 14.39L13.6 14.39C16.53 14.39 18.93 16.65 19.18 19.52C21.16 17.62 22.39 14.95 22.39 12C22.39 6.25 17.74 1.6 12 1.6ZM12 4.79C9.79 4.79 8 6.59 8 8.79C8 11 9.79 12.79 12 12.79C14.2 12.79 16 11 16 8.79C16 6.59 14.2 4.79 12 4.79Z" fill="#000000" fill-opacity="1.000000" fill-rule="evenodd"/>
</svg>
