<svg width="24" height="25" viewBox="0 0 24 25" fill="none" xmlns="http://www.w3.org/2000/svg">
<g clip-path="url(#clip0_68_1356)">
<path d="M23.5216 6.25816C23.3859 5.74758 23.1185 5.28158 22.7462 4.90682C22.3738 4.53206 21.9095 4.26166 21.3998 4.12271C19.5234 3.61816 12.0234 3.61816 12.0234 3.61816C12.0234 3.61816 4.52344 3.61816 2.64707 4.12271C2.13737 4.26166 1.6731 4.53206 1.30073 4.90682C0.928354 5.28158 0.660943 5.74758 0.525256 6.25816C0.0234376 8.14271 0.0234375 12.0727 0.0234375 12.0727C0.0234375 12.0727 0.0234376 16.0027 0.525256 17.8873C0.660943 18.3978 0.928354 18.8638 1.30073 19.2386C1.6731 19.6134 2.13737 19.8838 2.64707 20.0227C4.52344 20.5273 12.0234 20.5273 12.0234 20.5273C12.0234 20.5273 19.5234 20.5273 21.3998 20.0227C21.9095 19.8838 22.3738 19.6134 22.7462 19.2386C23.1185 18.8638 23.3859 18.3978 23.5216 17.8873C24.0234 16.0027 24.0234 12.0727 24.0234 12.0727C24.0234 12.0727 24.0234 8.14271 23.5216 6.25816Z" fill="#FF0302"/>
<path d="M9.56934 15.6412V8.50391L15.8421 12.0725L9.56934 15.6412Z" fill="#FEFEFE"/>
</g>
<defs>
<clipPath id="clip0_68_1356">
<rect width="24" height="24" fill="white" transform="translate(0 0.0722656)"/>
</clipPath>
</defs>
</svg>
